<?xml version="1.0" encoding="UTF-8" standalone="no"?>
<!DOCTYPE svg PUBLIC "-//W3C//DTD SVG 1.1//EN"
"http://www.w3.org/Graphics/SVG/1.1/DTD/svg11.dtd">
<svg viewBox="0 0 909 1286" version="1.1" xmlns="http://www.w3.org/2000/svg" xmlns:xlink="http://www.w3.org/1999/xlink">
<defs>
<style type="text/css"><![CDATA[
.g0_1{
}
.g1_1{
fill: #FFFFFF;
}
.g2_1{
fill: #0563C1;
}
.g3_1{
fill: #9F9F9F;
}
.g4_1{
fill: #E2E2E2;
}
]]></style>
</defs>
<path fill-rule="evenodd" d="M371.7,128.9H538v-1.3H371.7v1.3Z" class="g0_1"/>
<path fill-rule="evenodd" d="M107.8,237.8H801.9V218.6H107.8v19.2Z" class="g1_1"/>
<path fill-rule="evenodd" d="M443,237.4H689.1v-1.2H443v1.2Z" class="g2_1"/>
<path fill-rule="evenodd" d="M110,297H799.5v-2.4H110V297Z" class="g3_1"/>
<path fill-rule="evenodd" d="M110,295h.4v-.4H110v.4Z" class="g3_1"/>
<path fill-rule="evenodd" d="M110,295h.4v-.4H110v.4Z" class="g3_1"/>
<path fill-rule="evenodd" d="M110.4,295H799.3v-.4H110.4v.4Z" class="g3_1"/>
<path fill-rule="evenodd" d="M799.3,295h.4v-.4h-.4v.4Z" class="g4_1"/>
<path fill-rule="evenodd" d="M799.3,295h.4v-.4h-.4v.4Z" class="g3_1"/>
<path fill-rule="evenodd" d="M110,296.7h.4V295H110v1.7Z" class="g3_1"/>
<path fill-rule="evenodd" d="M799.3,296.7h.4V295h-.4v1.7Z" class="g4_1"/>
<path fill-rule="evenodd" d="M110,297h.4v-.3H110v.3Z" class="g3_1"/>
<path fill-rule="evenodd" d="M110,297h.4v-.3H110v.3Z" class="g4_1"/>
<path fill-rule="evenodd" d="M110.4,297H799.3v-.3H110.4v.3Z" class="g4_1"/>
<path fill-rule="evenodd" d="M799.3,297h.4v-.3h-.4v.3Z" class="g4_1"/>
<path fill-rule="evenodd" d="M799.3,297h.4v-.3h-.4v.3Z" class="g4_1"/>
<path fill-rule="evenodd" d="M110,332H278.2v-1.2H110V332Z" class="g0_1"/>
<path fill-rule="evenodd" d="M110,476.1H799.5v-2.3H110v2.3Z" class="g3_1"/>
<path fill-rule="evenodd" d="M110,474.2h.4v-.4H110v.4Z" class="g3_1"/>
<path fill-rule="evenodd" d="M110,474.2h.4v-.4H110v.4Z" class="g3_1"/>
<path fill-rule="evenodd" d="M110.4,474.2H799.3v-.4H110.4v.4Z" class="g3_1"/>
<path fill-rule="evenodd" d="M799.3,474.2h.4v-.4h-.4v.4Z" class="g4_1"/>
<path fill-rule="evenodd" d="M799.3,474.2h.4v-.4h-.4v.4Z" class="g3_1"/>
<path fill-rule="evenodd" d="M110,475.8h.4v-1.6H110v1.6Z" class="g3_1"/>
<path fill-rule="evenodd" d="M799.3,475.8h.4v-1.6h-.4v1.6Z" class="g4_1"/>
<path fill-rule="evenodd" d="M110,476.2h.4v-.4H110v.4Z" class="g3_1"/>
<path fill-rule="evenodd" d="M110,476.2h.4v-.4H110v.4Z" class="g4_1"/>
<path fill-rule="evenodd" d="M110.4,476.2H799.3v-.4H110.4v.4Z" class="g4_1"/>
<path fill-rule="evenodd" d="M799.3,476.2h.4v-.4h-.4v.4Z" class="g4_1"/>
<path fill-rule="evenodd" d="M799.3,476.2h.4v-.4h-.4v.4Z" class="g4_1"/>
<path fill-rule="evenodd" d="M110,511.2H302.4v-1.3H110v1.3Z" class="g0_1"/>
<path fill-rule="evenodd" d="M110,980.8H799.5v-2.3H110v2.3Z" class="g3_1"/>
<path fill-rule="evenodd" d="M110,979h.4v-.4H110v.4Z" class="g3_1"/>
<path fill-rule="evenodd" d="M110,979h.4v-.4H110v.4Z" class="g3_1"/>
<path fill-rule="evenodd" d="M110.4,979H799.3v-.4H110.4v.4Z" class="g3_1"/>
<path fill-rule="evenodd" d="M799.3,979h.4v-.4h-.4v.4Z" class="g4_1"/>
<path fill-rule="evenodd" d="M799.3,979h.4v-.4h-.4v.4Z" class="g3_1"/>
<path fill-rule="evenodd" d="M110,980.6h.4V979H110v1.6Z" class="g3_1"/>
<path fill-rule="evenodd" d="M799.3,980.6h.4V979h-.4v1.6Z" class="g4_1"/>
<path fill-rule="evenodd" d="M110,981h.4v-.4H110v.4Z" class="g3_1"/>
<path fill-rule="evenodd" d="M110,981h.4v-.4H110v.4Z" class="g4_1"/>
<path fill-rule="evenodd" d="M110.4,981H799.3v-.4H110.4v.4Z" class="g4_1"/>
<path fill-rule="evenodd" d="M799.3,981h.4v-.4h-.4v.4Z" class="g4_1"/>
<path fill-rule="evenodd" d="M799.3,981h.4v-.4h-.4v.4Z" class="g4_1"/>
<path fill-rule="evenodd" d="M110,1016H305.1v-1.3H110v1.3Z" class="g0_1"/>
<path fill-rule="evenodd" d="M115.5,1170H794v-3.2H115.5v3.2Z" class="g3_1"/>
<path fill-rule="evenodd" d="M115.5,1167.3h.4v-.4h-.4v.4Z" class="g3_1"/>
<path fill-rule="evenodd" d="M115.5,1167.3h.4v-.4h-.4v.4Z" class="g3_1"/>
<path fill-rule="evenodd" d="M115.9,1167.3H793.8v-.4H115.9v.4Z" class="g3_1"/>
<path fill-rule="evenodd" d="M793.8,1167.3h.4v-.4h-.4v.4Z" class="g4_1"/>
<path fill-rule="evenodd" d="M793.8,1167.3h.4v-.4h-.4v.4Z" class="g3_1"/>
<path fill-rule="evenodd" d="M115.5,1169.8h.4v-2.5h-.4v2.5Z" class="g3_1"/>
<path fill-rule="evenodd" d="M793.8,1169.8h.4v-2.5h-.4v2.5Z" class="g4_1"/>
<path fill-rule="evenodd" d="M115.5,1170.2h.4v-.3h-.4v.3Z" class="g3_1"/>
<path fill-rule="evenodd" d="M115.5,1170.2h.4v-.3h-.4v.3Z" class="g4_1"/>
<path fill-rule="evenodd" d="M115.9,1170.2H793.8v-.3H115.9v.3Z" class="g4_1"/>
<path fill-rule="evenodd" d="M793.8,1170.2h.4v-.3h-.4v.3Z" class="g4_1"/>
<path fill-rule="evenodd" d="M793.8,1170.2h.4v-.3h-.4v.3Z" class="g4_1"/>
</svg>