<?xml version="1.0" encoding="UTF-8" standalone="no"?>
<!DOCTYPE svg PUBLIC "-//W3C//DTD SVG 1.1//EN"
"http://www.w3.org/Graphics/SVG/1.1/DTD/svg11.dtd">
<svg viewBox="0 0 909 1286" version="1.1" xmlns="http://www.w3.org/2000/svg" xmlns:xlink="http://www.w3.org/1999/xlink">
<defs>
<style type="text/css"><![CDATA[
.g0{
}
.g1{
fill: #9F9F9F;
}
.g2{
fill: #E2E2E2;
}
]]></style>
</defs>
<path fill-rule="evenodd" d="M110,128.9H353.7v-1.3H110v1.3Z" class="g0"/>
<path fill-rule="evenodd" d="M110,656H799.5v-2.4H110V656Z" class="g1"/>
<path fill-rule="evenodd" d="M110,654.1h.4v-.4H110v.4Z" class="g1"/>
<path fill-rule="evenodd" d="M110,654.1h.4v-.4H110v.4Z" class="g1"/>
<path fill-rule="evenodd" d="M110.4,654.1H799.3v-.4H110.4v.4Z" class="g1"/>
<path fill-rule="evenodd" d="M799.3,654.1h.4v-.4h-.4v.4Z" class="g2"/>
<path fill-rule="evenodd" d="M799.3,654.1h.4v-.4h-.4v.4Z" class="g1"/>
<path fill-rule="evenodd" d="M110,655.7h.4v-1.6H110v1.6Z" class="g1"/>
<path fill-rule="evenodd" d="M799.3,655.7h.4v-1.6h-.4v1.6Z" class="g2"/>
<path fill-rule="evenodd" d="M110,656.1h.4v-.4H110v.4Z" class="g1"/>
<path fill-rule="evenodd" d="M110,656.1h.4v-.4H110v.4Z" class="g2"/>
<path fill-rule="evenodd" d="M110.4,656.1H799.3v-.4H110.4v.4Z" class="g2"/>
<path fill-rule="evenodd" d="M799.3,656.1h.4v-.4h-.4v.4Z" class="g2"/>
<path fill-rule="evenodd" d="M799.3,656.1h.4v-.4h-.4v.4Z" class="g2"/>
<path fill-rule="evenodd" d="M110,691.1H277.3v-1.3H110v1.3Z" class="g0"/>
<path fill-rule="evenodd" d="M110,892.7H799.5v-2.5H110v2.5Z" class="g1"/>
<path fill-rule="evenodd" d="M110,890.8h.4v-.4H110v.4Z" class="g1"/>
<path fill-rule="evenodd" d="M110,890.8h.4v-.4H110v.4Z" class="g1"/>
<path fill-rule="evenodd" d="M110.4,890.8H799.3v-.4H110.4v.4Z" class="g1"/>
<path fill-rule="evenodd" d="M799.3,890.8h.4v-.4h-.4v.4Z" class="g2"/>
<path fill-rule="evenodd" d="M799.3,890.8h.4v-.4h-.4v.4Z" class="g1"/>
<path fill-rule="evenodd" d="M110,892.4h.4v-1.6H110v1.6Z" class="g1"/>
<path fill-rule="evenodd" d="M799.3,892.4h.4v-1.6h-.4v1.6Z" class="g2"/>
<path fill-rule="evenodd" d="M110,892.8h.4v-.4H110v.4Z" class="g1"/>
<path fill-rule="evenodd" d="M110,892.8h.4v-.4H110v.4Z" class="g2"/>
<path fill-rule="evenodd" d="M110.4,892.8H799.3v-.4H110.4v.4Z" class="g2"/>
<path fill-rule="evenodd" d="M799.3,892.8h.4v-.4h-.4v.4Z" class="g2"/>
<path fill-rule="evenodd" d="M799.3,892.8h.4v-.4h-.4v.4Z" class="g2"/>
<path fill-rule="evenodd" d="M110,927.8H473.5v-1.3H110v1.3Z" class="g0"/>
<path fill-rule="evenodd" d="M110,1077.2H799.5v-2.3H110v2.3Z" class="g1"/>
<path fill-rule="evenodd" d="M110,1075.4h.4v-.4H110v.4Z" class="g1"/>
<path fill-rule="evenodd" d="M110,1075.4h.4v-.4H110v.4Z" class="g1"/>
<path fill-rule="evenodd" d="M110.4,1075.4H799.3v-.4H110.4v.4Z" class="g1"/>
<path fill-rule="evenodd" d="M799.3,1075.4h.4v-.4h-.4v.4Z" class="g2"/>
<path fill-rule="evenodd" d="M799.3,1075.4h.4v-.4h-.4v.4Z" class="g1"/>
<path fill-rule="evenodd" d="M110,1077.1h.4v-1.7H110v1.7Z" class="g1"/>
<path fill-rule="evenodd" d="M799.3,1077.1h.4v-1.7h-.4v1.7Z" class="g2"/>
<path fill-rule="evenodd" d="M110,1077.4h.4v-.3H110v.3Z" class="g1"/>
<path fill-rule="evenodd" d="M110,1077.4h.4v-.3H110v.3Z" class="g2"/>
<path fill-rule="evenodd" d="M110.4,1077.4H799.3v-.3H110.4v.3Z" class="g2"/>
<path fill-rule="evenodd" d="M799.3,1077.4h.4v-.3h-.4v.3Z" class="g2"/>
<path fill-rule="evenodd" d="M799.3,1077.4h.4v-.3h-.4v.3Z" class="g2"/>
<path fill-rule="evenodd" d="M110,1112.6H225v-1.2H110v1.2Z" class="g0"/>
</svg>